<svg width="1202" height="739" xmlns="http://www.w3.org/2000/svg" xmlns:xlink="http://www.w3.org/1999/xlink" overflow="hidden"><defs><filter id="fx0" x="-10%" y="-10%" width="120%" height="120%" filterUnits="userSpaceOnUse" primitiveUnits="userSpaceOnUse"><feComponentTransfer color-interpolation-filters="sRGB"><feFuncR type="discrete" tableValues="0 0"/><feFuncG type="discrete" tableValues="0 0"/><feFuncB type="discrete" tableValues="0 0"/><feFuncA type="linear" slope="0.431373" intercept="0"/></feComponentTransfer><feGaussianBlur stdDeviation="0.510874 0.510874"/></filter><filter id="fx1" x="-10%" y="-10%" width="120%" height="120%" filterUnits="userSpaceOnUse" primitiveUnits="userSpaceOnUse"><feComponentTransfer color-interpolation-filters="sRGB"><feFuncR type="discrete" tableValues="0 0"/><feFuncG type="discrete" tableValues="0 0"/><feFuncB type="discrete" tableValues="0 0"/><feFuncA type="linear" slope="0.431373" intercept="0"/></feComponentTransfer><feGaussianBlur stdDeviation="0.510874 0.510874"/></filter><filter id="fx2" x="-10%" y="-10%" width="120%" height="120%" filterUnits="userSpaceOnUse" primitiveUnits="userSpaceOnUse"><feComponentTransfer color-interpolation-filters="sRGB"><feFuncR type="discrete" tableValues="0 0"/><feFuncG type="discrete" tableValues="0 0"/><feFuncB type="discrete" tableValues="0 0"/><feFuncA type="linear" slope="0.431373" intercept="0"/></feComponentTransfer><feGaussianBlur stdDeviation="0.510874 0.510874"/></filter><clipPath id="clip3"><rect x="14" y="11" width="26" height="18"/></clipPath><clipPath id="clip4"><rect x="13" y="10" width="40" height="21"/></clipPath><clipPath id="clip5"><rect x="13" y="9" width="78" height="21"/></clipPath></defs><g transform="translate(-24 2)"><path d="M416.5 281.5C416.5 246.154 434.409 217.5 456.5 217.5 478.591 217.5 496.5 246.154 496.5 281.5 496.5 316.846 478.591 345.5 456.5 345.5 434.409 345.5 416.5 316.846 416.5 281.5Z" stroke="#1EB6EF" stroke-width="1.33333" stroke-linejoin="round" stroke-miterlimit="10" fill="none" fill-rule="evenodd"/><text fill="#00B0F0" font-family="Cambria,Cambria_MSFontService,sans-serif" font-weight="400" font-size="13" transform="translate(411.205 215)">Jump</text><text fill="#00B0F0" font-family="Cambria,Cambria_MSFontService,sans-serif" font-weight="700" font-size="16" transform="translate(427.791 286)">Control</text><text fill="#00B0F0" font-family="Cambria,Cambria_MSFontService,sans-serif" font-weight="400" font-size="13" transform="translate(486.467 231)">Branch</text><text fill="#00B0F0" font-family="Cambria,Cambria_MSFontService,sans-serif" font-weight="400" font-size="13" transform="translate(505.812 269)">MemRead</text><text fill="#00B0F0" font-family="Cambria,Cambria_MSFontService,sans-serif" font-weight="400" font-size="13" transform="translate(506.038 287)">MemToReg</text><text fill="#00B0F0" font-family="Cambria,Cambria_MSFontService,sans-serif" font-weight="400" font-size="13" transform="translate(504.54 252)">ALUOp</text><text fill="#00B0F0" font-family="Cambria,Cambria_MSFontService,sans-serif" font-weight="400" font-size="13" transform="translate(505.957 305)">MemWrite</text><text fill="#00B0F0" font-family="Cambria,Cambria_MSFontService,sans-serif" font-weight="400" font-size="13" transform="translate(403.116 357)">RegDst</text><text fill="#00B0F0" font-family="Cambria,Cambria_MSFontService,sans-serif" font-weight="400" font-size="13" transform="translate(490.178 335)">RegWrite 1</text><text fill="#00B0F0" font-family="Cambria,Cambria_MSFontService,sans-serif" font-weight="400" font-size="13" transform="translate(504.871 320)">ALUSrc</text><rect x="147.5" y="394.5" width="165" height="152" stroke="#000000" stroke-width="1.33333" stroke-miterlimit="8" fill="none"/><text font-family="KaiTi,KaiTi_MSFontService,sans-serif" font-weight="400" font-size="16" transform="translate(148.341 482)">读地址</text><text font-family="KaiTi,KaiTi_MSFontService,sans-serif" font-weight="400" font-size="16" transform="translate(226.979 482)">指令</text><text font-family="KaiTi,KaiTi_MSFontService,sans-serif" font-weight="400" font-size="16" transform="translate(258.979 482)">[31</text><text font-family="KaiTi,KaiTi_MSFontService,sans-serif" font-weight="400" font-size="16" transform="translate(282.979 482)">-</text><text font-family="KaiTi,KaiTi_MSFontService,sans-serif" font-weight="400" font-size="16" transform="translate(290.979 482)">0]</text><text fill="#000099" font-family="KaiTi,KaiTi_MSFontService,sans-serif" font-weight="700" font-size="16" transform="translate(189.207 441)">指令存储器</text><path d="M474.5 434.923 474.5 483.078C474.5 489.386 466.665 494.5 457 494.5 447.335 494.5 439.5 489.386 439.5 483.078L439.5 434.923C439.5 428.614 447.335 423.5 457 423.5 466.665 423.5 474.5 428.614 474.5 434.923Z" stroke="#000000" stroke-width="1.33333" stroke-miterlimit="8" fill="none" fill-rule="evenodd"/><text fill="#000099" font-family="Cambria,Cambria_MSFontService,sans-serif" font-weight="700" font-size="16" transform="translate(450.782 452)">M</text><text fill="#000099" font-family="Cambria,Cambria_MSFontService,sans-serif" font-weight="700" font-size="16" transform="translate(452.782 465)">u</text><text fill="#000099" font-family="Cambria,Cambria_MSFontService,sans-serif" font-weight="700" font-size="16" transform="translate(453.369 479)">x</text><text fill="#92D050" font-family="Cambria,Cambria_MSFontService,sans-serif" font-weight="700" font-size="16" transform="translate(452.979 436)">0</text><text font-family="Cambria,Cambria_MSFontService,sans-serif" font-weight="400" font-size="16" transform="translate(452.13 492)">1</text><path d="M752.5 508.083 752.5 556.917C752.5 563.314 744.441 568.5 734.5 568.5 724.559 568.5 716.5 563.314 716.5 556.917L716.5 508.083C716.5 501.686 724.559 496.5 734.5 496.5 744.441 496.5 752.5 501.686 752.5 508.083Z" stroke="#000000" stroke-width="1.33333" stroke-miterlimit="8" fill="none" fill-rule="evenodd"/><text fill="#0000CC" font-family="Cambria,Cambria_MSFontService,sans-serif" font-weight="700" font-size="16" transform="translate(728.199 525)">M</text><text fill="#0000CC" font-family="Cambria,Cambria_MSFontService,sans-serif" font-weight="700" font-size="16" transform="translate(730.199 538)">u</text><text fill="#0000CC" font-family="Cambria,Cambria_MSFontService,sans-serif" font-weight="700" font-size="16" transform="translate(730.786 552)">x</text><text fill="#92D050" font-family="Cambria,Cambria_MSFontService,sans-serif" font-weight="400" font-size="16" transform="translate(730.395 510)">0</text><text font-family="Cambria,Cambria_MSFontService,sans-serif" font-weight="400" font-size="16" transform="translate(729.546 566)">1</text><path d="M774.5 419.5 774.5 472.341 809.974 487.933 774.5 502.536 774.5 555.376 898.18 517.262 898.18 457.615 774.5 419.5" stroke="#000000" stroke-width="1.33333" stroke-linecap="round" stroke-linejoin="round" stroke-miterlimit="10" fill="none" fill-rule="evenodd"/><text fill="#000099" font-family="Cambria,Cambria_MSFontService,sans-serif" font-weight="700" font-size="16" transform="translate(811.355 494)">ALU</text><text font-family="Cambria,Cambria_MSFontService,sans-serif" font-weight="400" font-size="16" transform="translate(811.355 406)">ovf</text><text fill="#1EB6EF" font-family="Cambria,Cambria_MSFontService,sans-serif" font-weight="400" font-size="16" transform="translate(859.322 472)">Zero</text><path d="M0.666667-2.9163e-06 0.666742 17.3333-0.666591 17.3333-0.666667 2.9163e-06ZM4.00007 16 0.000104987 24-3.99993 16Z" transform="matrix(1 0 0 -1 827.5 435.5)"/><text font-family="Cambria,Cambria_MSFontService,sans-serif" font-weight="400" font-size="16" transform="translate(859.773 498)">ALU</text><text font-family="Cambria,Cambria_MSFontService,sans-serif" font-weight="400" font-size="16" transform="translate(854.266 514)">result</text><rect x="944.5" y="463.5" width="152" height="152" stroke="#000000" stroke-width="1.33333" stroke-miterlimit="8" fill="none"/><text fill="#000099" font-family="KaiTi,KaiTi_MSFontService,sans-serif" font-weight="700" font-size="16" transform="translate(1004.88 523)">数据存储器</text><text font-family="KaiTi,KaiTi_MSFontService,sans-serif" font-weight="400" font-size="16" transform="translate(946.465 504)">地址</text><text font-family="KaiTi,KaiTi_MSFontService,sans-serif" font-weight="400" font-size="16" transform="translate(946.465 592)">写数据</text><text font-family="KaiTi,KaiTi_MSFontService,sans-serif" font-weight="400" font-size="16" transform="translate(1013.38 578)">读出的数据</text><path d="M1150.5 578.083 1150.5 626.917C1150.5 633.314 1142.67 638.5 1133 638.5 1123.34 638.5 1115.5 633.314 1115.5 626.917L1115.5 578.083C1115.5 571.686 1123.34 566.5 1133 566.5 1142.67 566.5 1150.5 571.686 1150.5 578.083Z" stroke="#000000" stroke-width="1.33333" stroke-miterlimit="8" fill="none" fill-rule="evenodd"/><text fill="#000099" font-family="Cambria,Cambria_MSFontService,sans-serif" font-weight="700" font-size="16" transform="translate(1126.43 595)">M</text><text fill="#000099" font-family="Cambria,Cambria_MSFontService,sans-serif" font-weight="700" font-size="16" transform="translate(1128.43 608)">u</text><text fill="#000099" font-family="Cambria,Cambria_MSFontService,sans-serif" font-weight="700" font-size="16" transform="translate(1129.01 622)">x</text><text font-family="Cambria,Cambria_MSFontService,sans-serif" font-weight="400" font-size="16" transform="translate(1128.62 580)">1</text><text fill="#92D050" font-family="Cambria,Cambria_MSFontService,sans-serif" font-weight="400" font-size="16" transform="translate(1127.77 635)">0</text><path d="M517.5 633.5C517.5 615.275 531.827 600.5 549.5 600.5 567.173 600.5 581.5 615.275 581.5 633.5 581.5 651.725 567.173 666.5 549.5 666.5 531.827 666.5 517.5 651.725 517.5 633.5Z" stroke="#000000" stroke-width="1.33333" stroke-linejoin="round" stroke-miterlimit="10" fill="none" fill-rule="evenodd"/><text fill="#000099" font-family="KaiTi,KaiTi_MSFontService,sans-serif" font-weight="700" font-size="16" transform="translate(531.756 629)">符号</text><text fill="#000099" font-family="KaiTi,KaiTi_MSFontService,sans-serif" font-weight="700" font-size="16" transform="translate(531.756 648)">扩展</text><path d="M795.5 658.5C795.5 636.409 809.827 618.5 827.5 618.5 845.173 618.5 859.5 636.409 859.5 658.5 859.5 680.591 845.173 698.5 827.5 698.5 809.827 698.5 795.5 680.591 795.5 658.5Z" stroke="#1EB6EF" stroke-width="1.33333" stroke-linejoin="round" stroke-miterlimit="10" fill="none" fill-rule="evenodd"/><text fill="#1EB6EF" font-family="KaiTi,KaiTi_MSFontService,sans-serif" font-weight="700" font-size="16" transform="translate(814.875 653)">ALU</text><text fill="#1EB6EF" font-family="KaiTi,KaiTi_MSFontService,sans-serif" font-weight="700" font-size="16" transform="translate(810.875 672)">控制</text><path d="M828.5 74.5001 828.5 113.354 843.948 124.819 828.5 135.556 828.5 174.409 882.361 146.384 882.361 102.526 828.5 74.5001" stroke="#000000" stroke-width="1.33333" stroke-linecap="round" stroke-linejoin="round" stroke-miterlimit="10" fill="none" fill-rule="evenodd"/><text fill="#000099" font-family="DengXian,DengXian_MSFontService,sans-serif" font-weight="700" font-size="16" transform="translate(845.082 127)">Add</text><path d="M983.5 70.0833 983.5 118.917C983.5 125.314 975.665 130.5 966 130.5 956.335 130.5 948.5 125.314 948.5 118.917L948.5 70.0833C948.5 63.686 956.335 58.5 966 58.5 975.665 58.5 983.5 63.686 983.5 70.0833Z" stroke="#000000" stroke-width="1.33333" stroke-miterlimit="8" fill="none" fill-rule="evenodd"/><text fill="#000099" font-family="Cambria,Cambria_MSFontService,sans-serif" font-weight="700" font-size="16" transform="translate(959.691 87)">M</text><text fill="#000099" font-family="Cambria,Cambria_MSFontService,sans-serif" font-weight="700" font-size="16" transform="translate(961.691 100)">u</text><text fill="#000099" font-family="Cambria,Cambria_MSFontService,sans-serif" font-weight="700" font-size="16" transform="translate(962.278 114)">x</text><text fill="#00B050" font-family="Cambria,Cambria_MSFontService,sans-serif" font-weight="700" font-size="16" transform="translate(961.888 72)">0</text><text font-family="Cambria,Cambria_MSFontService,sans-serif" font-weight="400" font-size="16" transform="translate(961.039 128)">1</text><path d="M1072.5 45.9225 1072.5 94.0775C1072.5 100.386 1064.44 105.5 1054.5 105.5 1044.56 105.5 1036.5 100.386 1036.5 94.0775L1036.5 45.9225C1036.5 39.614 1044.56 34.5 1054.5 34.5 1064.44 34.5 1072.5 39.614 1072.5 45.9225Z" stroke="#000000" stroke-width="1.33333" stroke-miterlimit="8" fill="none" fill-rule="evenodd"/><text fill="#000099" font-family="Cambria,Cambria_MSFontService,sans-serif" font-weight="700" font-size="16" transform="translate(1047.96 63)">M</text><text fill="#000099" font-family="Cambria,Cambria_MSFontService,sans-serif" font-weight="700" font-size="16" transform="translate(1049.96 76)">u</text><text fill="#000099" font-family="Cambria,Cambria_MSFontService,sans-serif" font-weight="700" font-size="16" transform="translate(1050.55 90)">x</text><text font-family="Cambria,Cambria_MSFontService,sans-serif" font-weight="400" font-size="16" transform="translate(1050.16 47)">1</text><text font-family="Cambria,Cambria_MSFontService,sans-serif" font-weight="400" font-size="16" transform="translate(1049.31 103)">0</text><path d="M733.5 162.5C733.5 139.304 745.365 120.5 760 120.5 774.636 120.5 786.5 139.304 786.5 162.5 786.5 185.696 774.636 204.5 760 204.5 745.365 204.5 733.5 185.696 733.5 162.5Z" stroke="#000000" stroke-width="1.33333" stroke-linejoin="round" stroke-miterlimit="10" fill="none" fill-rule="evenodd"/><text fill="#000099" font-family="KaiTi,KaiTi_MSFontService,sans-serif" font-weight="700" font-size="16" transform="translate(742.692 157)">左移</text><text fill="#000099" font-family="KaiTi,KaiTi_MSFontService,sans-serif" font-weight="700" font-size="16" transform="translate(746.692 178)">2</text><text fill="#000099" font-family="KaiTi,KaiTi_MSFontService,sans-serif" font-weight="700" font-size="16" transform="translate(754.692 178)">位</text><path d="M421.5 50.5C421.5 27.3041 433.365 8.50005 448 8.50005 462.636 8.50005 474.5 27.3041 474.5 50.5 474.5 73.696 462.636 92.5 448 92.5 433.365 92.5 421.5 73.696 421.5 50.5Z" stroke="#000000" stroke-width="1.33333" stroke-linejoin="round" stroke-miterlimit="10" fill="none" fill-rule="evenodd"/><text fill="#000099" font-family="KaiTi,KaiTi_MSFontService,sans-serif" font-weight="700" font-size="16" transform="translate(430.848 45)">左移</text><text fill="#000099" font-family="KaiTi,KaiTi_MSFontService,sans-serif" font-weight="700" font-size="16" transform="translate(434.848 66)">2</text><text fill="#000099" font-family="KaiTi,KaiTi_MSFontService,sans-serif" font-weight="700" font-size="16" transform="translate(442.848 66)">位</text><rect x="82.5001" y="430.5" width="24" height="88" stroke="#000000" stroke-width="1.33333" stroke-miterlimit="8" fill="none"/><text fill="#000099" font-family="Cambria,Cambria_MSFontService,sans-serif" font-weight="400" font-size="16" transform="translate(83.328 475)">PC</text><path d="M312.5 475.5 333.5 475.5" stroke="#92D050" stroke-width="3" stroke-linejoin="round" stroke-miterlimit="10" fill="none" fill-rule="evenodd"/><path d="M334.5 384.5 334.5 478.5" stroke="#92D050" stroke-width="3" stroke-linejoin="round" stroke-miterlimit="10" fill="none" fill-rule="evenodd"/><text font-family="KaiTi,KaiTi_MSFontService,sans-serif" font-weight="700" font-size="16" transform="translate(412.475 478)">rd</text><path d="M334.5 485 431 485 431 488 334.5 488ZM429.5 482 438.5 486.5 429.5 491Z"/><path d="M474.5 457 484 457 484 460 474.5 460ZM482.5 454 491.5 458.5 482.5 463Z" fill="#92D050"/><path d="M334.5 417 483 417 483 420 334.5 420ZM481.5 414 490.5 418.5 481.5 423Z" fill="#92D050"/><path d="M334.5 383 483 383 483 386 334.5 386ZM481.5 380 490.5 384.5 481.5 389Z" fill="#92D050"/><text font-family="KaiTi,KaiTi_MSFontService,sans-serif" font-weight="700" font-size="16" transform="translate(420.042 375)">rs</text><path d="M412.5 439 432 439 432 442 412.5 442ZM430.5 436 439.5 440.5 430.5 445Z" fill="#92D050"/><path d="M412.5 417.5 412.5 441.5" stroke="#92D050" stroke-width="3" stroke-linejoin="round" stroke-miterlimit="10" fill="none" fill-rule="evenodd"/><path d="M333.5 632 513 632 513 635 333.5 635ZM511.5 629 520.5 633.5 511.5 638Z"/><text font-family="KaiTi,KaiTi_MSFontService,sans-serif" font-weight="400" font-size="16" transform="translate(338.556 624)">指令</text><text font-family="KaiTi,KaiTi_MSFontService,sans-serif" font-weight="400" font-size="16" transform="translate(370.556 624)">[15</text><text font-family="KaiTi,KaiTi_MSFontService,sans-serif" font-weight="400" font-size="16" transform="translate(394.556 624)">-</text><text font-family="KaiTi,KaiTi_MSFontService,sans-serif" font-weight="400" font-size="16" transform="translate(402.556 624)">0]</text><path d="M499.5 623.5 507.5 639.5" stroke="#000000" stroke-width="1.33333" stroke-linejoin="round" stroke-miterlimit="10" fill="none" fill-rule="evenodd"/><text font-family="KaiTi,KaiTi_MSFontService,sans-serif" font-weight="400" font-size="16" transform="translate(492.858 659)">16</text><path d="M751.5 526 767 526 767 529 751.5 529ZM765.5 523 774.5 527.5 765.5 532Z" fill="#92D050"/><path d="M664.5 507 708 507 708 510 664.5 510ZM706.5 504 715.5 508.5 706.5 513Z" fill="#92D050"/><path d="M662.5 434 767 434 767 437 662.5 437ZM765.5 431 774.5 435.5 765.5 440Z" fill="#92D050"/><path d="M694.5 556 709 556 709 559 694.5 559ZM707.5 553 716.5 557.5 707.5 562Z"/><path d="M693.5 160.5 693.5 631.5" stroke="#000000" stroke-width="3" stroke-linejoin="round" stroke-miterlimit="10" fill="none" fill-rule="evenodd"/><path d="M581.5 632.5 693.5 632.5" stroke="#000000" stroke-width="3" stroke-linejoin="round" stroke-miterlimit="10" fill="none" fill-rule="evenodd"/><path d="M592.5 621.5 600.5 637.5" stroke="#000000" stroke-width="1.33333" stroke-linejoin="round" stroke-miterlimit="10" fill="none" fill-rule="evenodd"/><text font-family="KaiTi,KaiTi_MSFontService,sans-serif" font-weight="400" font-size="16" transform="translate(594.448 657)">32</text><path d="M914.5 494 939 494 939 497 914.5 497ZM937.5 491 946.5 495.5 937.5 500Z"/><path d="M674.5 587 937 587 937 590 674.5 590ZM935.5 584 944.5 588.5 935.5 593Z"/><path d="M675.5 510.5 675.5 594.5" stroke="#92D050" stroke-width="3" stroke-linejoin="round" stroke-miterlimit="10" fill="none" fill-rule="evenodd"/><path d="M1097.5 569 1112 569 1112 572 1097.5 572ZM1110.5 566 1119.5 570.5 1110.5 575Z"/><path d="M914.5 628 1110 628 1110 631 914.5 631ZM1108.5 625 1117.5 629.5 1108.5 634Z" fill="#92D050"/><path d="M915.5 494.5 915.5 629.5" stroke="#92D050" stroke-width="3" stroke-linejoin="round" stroke-miterlimit="10" fill="none" fill-rule="evenodd"/><path d="M106.5 472 140 472 140 475 106.5 475ZM138.5 469 147.5 473.5 138.5 478Z" fill="#00B050"/><path d="M472.5 530 482 530 482 533 472.5 533ZM480.5 527 489.5 531.5 480.5 536Z" fill="#92D050"/><path d="M472.5 531.5 472.5 714.5" stroke="#92D050" stroke-width="3" stroke-linejoin="round" stroke-miterlimit="10" fill="none" fill-rule="evenodd"/><path d="M472.5 714.5 1172.5 714.5" stroke="#92D050" stroke-width="3" stroke-linejoin="round" stroke-miterlimit="10" fill="none" fill-rule="evenodd"/><path d="M1148.5 602.5 1169.5 602.5" stroke="#92D050" stroke-width="3" stroke-linejoin="round" stroke-miterlimit="10" fill="none" fill-rule="evenodd"/><path d="M1172.5 602.5 1172.5 714.5" stroke="#92D050" stroke-width="3" stroke-linejoin="round" stroke-miterlimit="10" fill="none" fill-rule="evenodd"/><path d="M458 345 458 415.333 456 415.333 456 345ZM461 414 457 422 453 414Z" fill="#1EB6EF"/><path d="M624 338 624 358.333 622 358.333 622 338ZM627 357 623 365 619 357Z" fill="#1EB6EF"/><path d="M474 338 623 338" stroke="#1EB6EF" stroke-width="2" stroke-linejoin="round" stroke-miterlimit="10" fill="none" fill-rule="evenodd"/><path d="M487 323 734 323" stroke="#1EB6EF" stroke-width="2" stroke-linejoin="round" stroke-miterlimit="10" fill="none" fill-rule="evenodd"/><path d="M735 323 735 490.333 733 490.333 733 323ZM738 489 734 497 730 489Z" fill="#1EB6EF"/><path d="M1020 307 1020 456.333 1018 456.333 1018 307ZM1023 455 1019 463 1015 455Z" fill="#1EB6EF"/><path d="M493 307 1021 307" stroke="#1EB6EF" stroke-width="2" stroke-linejoin="round" stroke-miterlimit="10" fill="none" fill-rule="evenodd"/><path d="M496 289 1135 289" stroke="#1EB6EF" stroke-width="2" stroke-linejoin="round" stroke-miterlimit="10" fill="none" fill-rule="evenodd"/><path d="M1134 289 1134 559.334 1132 559.334 1132 289ZM1137 558 1133 566 1129 558Z" fill="#1EB6EF"/><path d="M495 271 1197 271" stroke="#1EB6EF" stroke-width="2" stroke-linejoin="round" stroke-miterlimit="10" fill="none" fill-rule="evenodd"/><path d="M1-2.38607e-06 1.00009 37.3333-0.999911 37.3333-1 2.38607e-06ZM4.00009 36 0.000104987 44-3.99991 36Z" fill="#1EB6EF" transform="matrix(1 0 0 -1 1022 658)"/><path d="M0 0 386 0.000104987" stroke="#1EB6EF" stroke-width="2" stroke-linejoin="round" stroke-miterlimit="10" fill="none" fill-rule="evenodd" transform="matrix(-6.12323e-17 -1 -1 6.12323e-17 1195 658)"/><path d="M1022 657 1195 657" stroke="#1EB6EF" stroke-width="2" stroke-linejoin="round" stroke-miterlimit="10" fill="none" fill-rule="evenodd"/><path d="M1-1.31234e-06 1.0001 73.3333-0.999904 73.3333-1 1.31234e-06ZM4.00009 72 0.000104987 80-3.99991 72Z" fill="#1EB6EF" transform="matrix(1 0 0 -1 826 621)"/><path d="M491 254 1214 254" stroke="#1EB6EF" stroke-width="2" stroke-linejoin="round" stroke-miterlimit="10" fill="none" fill-rule="evenodd"/><path d="M0 0 416 0.000104987" stroke="#1EB6EF" stroke-width="2" stroke-linejoin="round" stroke-miterlimit="10" fill="none" fill-rule="evenodd" transform="matrix(-6.12323e-17 -1 -1 6.12323e-17 1212 670)"/><path d="M1-2.95738e-07 1.0001 348.334-0.999897 348.334-1 2.95738e-07ZM4.0001 347 0.000104987 355-3.9999 347Z" fill="#1EB6EF" transform="matrix(-1.83697e-16 -1 -1 1.83697e-16 1212 670)"/><path d="M408.5 683 797 683 797 686 408.5 686ZM795.5 680 804.5 684.5 795.5 689Z"/><path d="M408.5 632.5 408.5 685.5" stroke="#000000" stroke-width="3" stroke-linejoin="round" stroke-miterlimit="10" fill="none" fill-rule="evenodd"/><text font-family="KaiTi,KaiTi_MSFontService,sans-serif" font-weight="400" font-size="16" transform="translate(672.565 679)">指令</text><text font-family="KaiTi,KaiTi_MSFontService,sans-serif" font-weight="400" font-size="16" transform="translate(704.565 679)">[5</text><text font-family="KaiTi,KaiTi_MSFontService,sans-serif" font-weight="400" font-size="16" transform="translate(720.565 679)">-</text><text font-family="KaiTi,KaiTi_MSFontService,sans-serif" font-weight="400" font-size="16" transform="translate(728.565 679)">0]</text><path d="M894.5 334.5 918 334.5C930.979 334.5 941.5 348.827 941.5 366.5 941.5 384.173 930.979 398.5 918 398.5L894.5 398.5Z" stroke="#1EB6EF" stroke-width="1.33333" stroke-miterlimit="8" fill="none" fill-rule="evenodd"/><path d="M482 233 873 233" stroke="#1EB6EF" stroke-width="2" stroke-linejoin="round" stroke-miterlimit="10" fill="none" fill-rule="evenodd"/><path d="M1-4.56465e-06 1.00007 16.3333-0.999925 16.3333-1 4.56465e-06ZM4.00007 15 0.000104987 23-3.99993 15Z" fill="#1EB6EF" transform="matrix(6.12323e-17 1 1 -6.12323e-17 873 385)"/><path d="M0 0 65 0.000104987" stroke="#1EB6EF" stroke-width="2" stroke-linejoin="round" stroke-miterlimit="10" fill="none" fill-rule="evenodd" transform="matrix(-6.12323e-17 -1 -1 6.12323e-17 873 451)"/><path d="M0 0 116 0.000104987" stroke="#1EB6EF" stroke-width="2" stroke-linejoin="round" stroke-miterlimit="10" fill="none" fill-rule="evenodd" transform="matrix(-6.12323e-17 -1 -1 6.12323e-17 870 349)"/><path d="M1-4.56465e-06 1.00007 16.3333-0.999925 16.3333-1 4.56465e-06ZM4.00007 15 0.000104987 23-3.99993 15Z" fill="#1EB6EF" transform="matrix(6.12323e-17 1 1 -6.12323e-17 871 348)"/><path d="M787.5 157 819 157 819 160 787.5 160ZM817.5 154 826.5 158.5 817.5 163Z"/><path d="M693.5 159 726 159 726 162 693.5 162ZM724.5 156 733.5 160.5 724.5 165Z"/><path d="M882.5 119 944 119 944 122 882.5 122ZM942.5 116 951.5 120.5 942.5 125Z"/><path d="M940 366 966 366" stroke="#1EB6EF" stroke-width="2" stroke-linejoin="round" stroke-miterlimit="10" fill="none" fill-rule="evenodd"/><path d="M1-4.4486e-07 1.0001 229.333-0.999898 229.333-1 4.4486e-07ZM4.0001 228 0.000104987 236-3.9999 228Z" fill="#1EB6EF" transform="matrix(1 0 0 -1 966 366)"/><path d="M456 211 1053 211" stroke="#1EB6EF" stroke-width="2" stroke-linejoin="round" stroke-miterlimit="10" fill="none" fill-rule="evenodd"/><path d="M0 0 9 0.000104987" stroke="#1EB6EF" stroke-width="2" stroke-linejoin="round" stroke-miterlimit="10" fill="none" fill-rule="evenodd" transform="matrix(-6.12323e-17 -1 -1 6.12323e-17 456 219)"/><path d="M1-9.99875e-07 1.0001 98.3333-0.999902 98.3333-1 9.99875e-07ZM4.0001 97 0.000104987 105-3.9999 97Z" fill="#1EB6EF" transform="matrix(1 0 0 -1 1053 210)"/><path d="M985.5 93.0001 1028 93.0001 1028 96.0001 985.5 96.0001ZM1026.5 90.0001 1035.5 94.5002 1026.5 99.0001Z" fill="#00B050"/><path d="M223.5 48.5001 223.5 87.7421 238.949 99.3217 223.5 110.166 223.5 149.408 277.361 121.102 277.361 76.8058 223.5 48.5001" stroke="#000000" stroke-width="1.33333" stroke-linecap="round" stroke-linejoin="round" stroke-miterlimit="10" fill="none" fill-rule="evenodd"/><text fill="#000099" font-family="DengXian,DengXian_MSFontService,sans-serif" font-weight="700" font-size="16" transform="translate(239.86 101)">Add</text><path d="M751.5 97.0001 817 97.0001 817 100 751.5 100ZM815.5 94.0001 824.5 98.5002 815.5 103Z"/><path d="M123.5 60.0001 216 60.0001 216 63.0001 123.5 63.0001ZM214.5 57.0001 223.5 61.5002 214.5 66.0002Z" fill="#00B050"/><path d="M123.5 61.5001 123.5 473.5" stroke="#00B050" stroke-width="3" stroke-linejoin="round" stroke-miterlimit="10" fill="none" fill-rule="evenodd"/><path d="M169.5 134 216 134 216 137 169.5 137ZM214.5 131 223.5 135.5 214.5 140Z" fill="#00B050"/><text font-family="KaiTi,KaiTi_MSFontService,sans-serif" font-weight="400" font-size="16" transform="translate(153.007 142)">4</text><path d="M322.5 44.5001 322.5 474.5" stroke="#000000" stroke-width="3" stroke-linejoin="round" stroke-miterlimit="10" fill="none" fill-rule="evenodd"/><path d="M322.5 43.0001 414 43.0001 414 46.0001 322.5 46.0001ZM412.5 40.0001 421.5 44.5002 412.5 49.0001Z"/><text font-family="KaiTi,KaiTi_MSFontService,sans-serif" font-weight="400" font-size="16" transform="translate(333.132 35)">指令</text><text font-family="KaiTi,KaiTi_MSFontService,sans-serif" font-weight="400" font-size="16" transform="translate(365.132 35)">[25</text><text font-family="KaiTi,KaiTi_MSFontService,sans-serif" font-weight="400" font-size="16" transform="translate(389.132 35)">-</text><text font-family="KaiTi,KaiTi_MSFontService,sans-serif" font-weight="400" font-size="16" transform="translate(397.132 35)">0]</text><path d="M474.5 43.0001 1029 43.0002 1029 46.0002 474.5 46.0001ZM1027.5 40.0002 1036.5 44.5002 1027.5 49.0002Z"/><text font-family="KaiTi,KaiTi_MSFontService,sans-serif" font-weight="400" font-size="16" transform="translate(834.802 37)">跳转地址</text><text font-family="KaiTi,KaiTi_MSFontService,sans-serif" font-weight="400" font-size="16" transform="translate(898.802 37)">[31</text><text font-family="KaiTi,KaiTi_MSFontService,sans-serif" font-weight="400" font-size="16" transform="translate(922.802 37)">-</text><text font-family="KaiTi,KaiTi_MSFontService,sans-serif" font-weight="400" font-size="16" transform="translate(930.802 37)">0]</text><path d="M586.5 43.5001 586.5 98.5001" stroke="#000000" stroke-width="3" stroke-linejoin="round" stroke-miterlimit="10" fill="none" fill-rule="evenodd"/><text font-family="KaiTi,KaiTi_MSFontService,sans-serif" font-weight="400" font-size="16" transform="translate(589.514 78)">(PC+4)</text><text font-family="KaiTi,KaiTi_MSFontService,sans-serif" font-weight="400" font-size="16" transform="translate(637.514 78)">[31</text><text font-family="KaiTi,KaiTi_MSFontService,sans-serif" font-weight="400" font-size="16" transform="translate(661.514 78)">-</text><text font-family="KaiTi,KaiTi_MSFontService,sans-serif" font-weight="400" font-size="16" transform="translate(669.514 78)">28]</text><path d="M399.5 39.5001 407.5 55.5001" stroke="#000000" stroke-width="1.33333" stroke-linejoin="round" stroke-miterlimit="10" fill="none" fill-rule="evenodd"/><text font-family="KaiTi,KaiTi_MSFontService,sans-serif" font-weight="400" font-size="16" transform="translate(393.28 74)">26</text><path d="M492.5 37.5001 500.5 53.5001" stroke="#000000" stroke-width="1.33333" stroke-linejoin="round" stroke-miterlimit="10" fill="none" fill-rule="evenodd"/><text font-family="KaiTi,KaiTi_MSFontService,sans-serif" font-weight="400" font-size="16" transform="translate(494.87 73)">28</text><text fill="#000099" font-family="KaiTi,KaiTi_MSFontService,sans-serif" font-weight="700" font-size="19" transform="translate(1083.62 145)">数据通路部件</text><text fill="#1EB6EF" font-family="KaiTi,KaiTi_MSFontService,sans-serif" font-weight="700" font-size="19" transform="translate(1083.62 168)">控制信号及单元</text><text font-family="KaiTi,KaiTi_MSFontService,sans-serif" font-weight="700" font-size="15" transform="translate(64.2337 586)">分支构成总线</text><text font-family="KaiTi,KaiTi_MSFontService,sans-serif" font-weight="700" font-size="15" transform="translate(78.9003 621)">交叉连接</text><text font-family="KaiTi,KaiTi_MSFontService,sans-serif" font-weight="700" font-size="15" transform="translate(71.567 657)">交叉不连接</text><text font-family="KaiTi,KaiTi_MSFontService,sans-serif" font-weight="700" font-size="15" transform="translate(78.9003 692)">旁路分支</text><text font-family="KaiTi,KaiTi_MSFontService,sans-serif" font-weight="700" font-size="15" transform="translate(49.567 709)">（取总线的部分）</text><text font-family="KaiTi,KaiTi_MSFontService,sans-serif" font-weight="400" font-size="16" transform="translate(581.167 39)">||</text><rect x="42" y="559" width="265" height="157" stroke="#000000" stroke-width="2" stroke-miterlimit="8" stroke-dasharray="16 6" fill="none"/><rect x="1070" y="114" width="153" height="81" stroke="#000000" stroke-width="2" stroke-miterlimit="8" stroke-dasharray="16 6" fill="none"/><path d="M219.5 625.5 237.5 625.5" stroke="#000000" stroke-width="3" stroke-linejoin="round" stroke-miterlimit="10" fill="none" fill-rule="evenodd"/><path d="M229.5 616.5 229.5 634.5" stroke="#000000" stroke-width="3" stroke-linejoin="round" stroke-miterlimit="10" fill="none" fill-rule="evenodd"/><path d="M216.5 661.5 234.5 661.5" stroke="#000000" stroke-width="3" stroke-linejoin="round" stroke-miterlimit="10" fill="none" fill-rule="evenodd"/><path d="M226.5 652.5 226.5 670.5" stroke="#000000" stroke-width="3" stroke-linejoin="round" stroke-miterlimit="10" fill="none" fill-rule="evenodd"/><path d="M212.5 577.5 250.5 577.5" stroke="#000000" stroke-width="3" stroke-linejoin="round" stroke-miterlimit="10" fill="none" fill-rule="evenodd"/><path d="M231.5 579.5 231.5 590.5" stroke="#000000" stroke-width="3" stroke-linejoin="round" stroke-miterlimit="10" fill="none" fill-rule="evenodd"/><text font-family="KaiTi,KaiTi_MSFontService,sans-serif" font-weight="400" font-size="13" transform="translate(225.906 574)">||</text><text font-family="Cambria,Cambria_MSFontService,sans-serif" font-weight="400" font-size="13" transform="translate(164.903 581)">branch1</text><text font-family="Cambria,Cambria_MSFontService,sans-serif" font-weight="400" font-size="13" transform="translate(208.084 599)">branch2</text><text font-family="Cambria,Cambria_MSFontService,sans-serif" font-weight="400" font-size="13" transform="translate(254.21 580)">new bus</text><path d="M229.5 693.5 229.5 705.5" stroke="#000000" stroke-width="3" stroke-linejoin="round" stroke-miterlimit="10" fill="none" fill-rule="evenodd"/><path d="M211.5 704 243 704 243 707 211.5 707ZM241.5 701 250.5 705.5 241.5 710Z"/><text font-family="Cambria,Cambria_MSFontService,sans-serif" font-weight="400" font-size="13" transform="translate(260.618 710)">bus</text><text font-family="Cambria,Cambria_MSFontService,sans-serif" font-weight="400" font-size="13" transform="translate(206.751 689)">branch</text><path d="M751.5 67.0001 941 67.0002 941 70.0002 751.5 70.0001ZM939.5 64.0002 948.5 68.5002 939.5 73.0002Z" fill="#00B050"/><path d="M42.5001 471 75.0001 471 75 474 42.5 474ZM73.5001 468 82.5001 472.5 73.5 477Z" fill="#00B050"/><path d="M42.5001 0.500053 42.5002 473.5" stroke="#00B050" stroke-width="3" stroke-linejoin="round" stroke-miterlimit="10" fill="none" fill-rule="evenodd"/><path d="M42.5001 0.500053 1104.5 0.500157" stroke="#00B050" stroke-width="3" stroke-linejoin="round" stroke-miterlimit="10" fill="none" fill-rule="evenodd"/><path d="M1074.5 71.5001 1102.5 71.5002" stroke="#00B050" stroke-width="3" stroke-linejoin="round" stroke-miterlimit="10" fill="none" fill-rule="evenodd"/><path d="M1102.5 1.50005 1102.5 72.5" stroke="#00B050" stroke-width="3" stroke-linejoin="round" stroke-miterlimit="10" fill="none" fill-rule="evenodd"/><path d="M752.5 67.5001 752.5 98.5001" stroke="#00B050" stroke-width="3" stroke-linejoin="round" stroke-miterlimit="10" fill="none" fill-rule="evenodd"/><text fill="#00B0F0" font-family="Cambria,Cambria_MSFontService,sans-serif" font-weight="400" font-size="13" transform="translate(951.133 386)">PCSrc</text><path d="M226.5 626C226.5 624.067 227.843 622.5 229.5 622.5 231.157 622.5 232.5 624.067 232.5 626 232.5 627.933 231.157 629.5 229.5 629.5 227.843 629.5 226.5 627.933 226.5 626Z" stroke="#000000" stroke-width="1.33333" stroke-miterlimit="8" fill-rule="evenodd"/><path d="M690.5 556C690.5 554.067 691.843 552.5 693.5 552.5 695.157 552.5 696.5 554.067 696.5 556 696.5 557.933 695.157 559.5 693.5 559.5 691.843 559.5 690.5 557.933 690.5 556Z" stroke="#000000" stroke-width="1.33333" stroke-miterlimit="8" fill-rule="evenodd"/><path d="M672.5 508.5C672.5 506.291 674.067 504.5 676 504.5 677.933 504.5 679.5 506.291 679.5 508.5 679.5 510.709 677.933 512.5 676 512.5 674.067 512.5 672.5 510.709 672.5 508.5Z" stroke="#92D050" stroke-width="1.33333" stroke-miterlimit="8" fill="#92D050" fill-rule="evenodd"/><path d="M409.5 419C409.5 417.067 411.067 415.5 413 415.5 414.933 415.5 416.5 417.067 416.5 419 416.5 420.933 414.933 422.5 413 422.5 411.067 422.5 409.5 420.933 409.5 419Z" stroke="#92D050" stroke-width="1.33333" stroke-miterlimit="8" fill="#92D050" fill-rule="evenodd"/><path d="M911.5 494C911.5 492.067 913.067 490.5 915 490.5 916.933 490.5 918.5 492.067 918.5 494 918.5 495.933 916.933 497.5 915 497.5 913.067 497.5 911.5 495.933 911.5 494Z" stroke="#92D050" stroke-width="1.33333" stroke-miterlimit="8" fill="#92D050" fill-rule="evenodd"/><path d="M118.5 472C118.5 470.067 120.067 468.5 122 468.5 123.933 468.5 125.5 470.067 125.5 472 125.5 473.933 123.933 475.5 122 475.5 120.067 475.5 118.5 473.933 118.5 472Z" stroke="#00B050" stroke-width="1.33333" stroke-miterlimit="8" fill="#00B050" fill-rule="evenodd"/><path d="M748.5 98.0001C748.5 96.0671 750.067 94.5001 752 94.5001 753.933 94.5001 755.5 96.0671 755.5 98.0001 755.5 99.9331 753.933 101.5 752 101.5 750.067 101.5 748.5 99.9331 748.5 98.0001Z" stroke="#00B050" stroke-width="1.33333" stroke-miterlimit="8" fill="#00B050" fill-rule="evenodd"/><text font-family="DengXian,DengXian_MSFontService,sans-serif" font-weight="400" font-size="24" transform="translate(248.301 702)">=</text><text font-family="DengXian,DengXian_MSFontService,sans-serif" font-weight="400" font-size="24" transform="translate(314.704 507)">=</text><text font-family="DengXian,DengXian_MSFontService,sans-serif" font-weight="400" font-size="24" transform="translate(382.046 655)">=</text><text font-family="DengXian,DengXian_MSFontService,sans-serif" font-weight="400" font-size="24" transform="translate(576.057 125)">=</text><rect x="490.5" y="367.5" width="174" height="218" stroke="#000000" stroke-width="1.33333" stroke-miterlimit="8" fill="none"/><text font-family="KaiTi,KaiTi_MSFontService,sans-serif" font-weight="400" font-size="16" transform="translate(492.075 574)">写数据</text><text font-family="KaiTi,KaiTi_MSFontService,sans-serif" font-weight="400" font-size="16" transform="translate(540.075 574)">2</text><text font-family="KaiTi,KaiTi_MSFontService,sans-serif" font-weight="400" font-size="16" transform="translate(492.075 388)">读寄存器</text><text font-family="KaiTi,KaiTi_MSFontService,sans-serif" font-weight="400" font-size="16" transform="translate(556.075 388)">1</text><text font-family="KaiTi,KaiTi_MSFontService,sans-serif" font-weight="400" font-size="16" transform="translate(492.075 425)">读寄存器</text><text font-family="KaiTi,KaiTi_MSFontService,sans-serif" font-weight="400" font-size="16" transform="translate(556.075 425)">2</text><text font-family="KaiTi,KaiTi_MSFontService,sans-serif" font-weight="400" font-size="16" transform="translate(492.075 463)">写寄存器</text><text font-family="KaiTi,KaiTi_MSFontService,sans-serif" font-weight="400" font-size="16" transform="translate(556.075 463)">1</text><text fill="#000099" font-family="KaiTi,KaiTi_MSFontService,sans-serif" font-weight="700" font-size="16" transform="translate(575.425 450)">寄</text><text fill="#000099" font-family="KaiTi,KaiTi_MSFontService,sans-serif" font-weight="700" font-size="16" transform="translate(575.425 469)">存</text><text fill="#000099" font-family="KaiTi,KaiTi_MSFontService,sans-serif" font-weight="700" font-size="16" transform="translate(575.425 488)">器</text><text fill="#000099" font-family="KaiTi,KaiTi_MSFontService,sans-serif" font-weight="700" font-size="16" transform="translate(575.425 507)">堆</text><text font-family="KaiTi,KaiTi_MSFontService,sans-serif" font-weight="400" font-size="16" transform="translate(604.837 433)">读出的</text><text font-family="KaiTi,KaiTi_MSFontService,sans-serif" font-weight="400" font-size="16" transform="translate(612.837 452)">数据</text><text font-family="KaiTi,KaiTi_MSFontService,sans-serif" font-weight="400" font-size="16" transform="translate(644.837 452)">1</text><text font-family="KaiTi,KaiTi_MSFontService,sans-serif" font-weight="400" font-size="16" transform="translate(604.493 506)">读出的</text><text font-family="KaiTi,KaiTi_MSFontService,sans-serif" font-weight="400" font-size="16" transform="translate(612.493 525)">数据</text><text font-family="KaiTi,KaiTi_MSFontService,sans-serif" font-weight="400" font-size="16" transform="translate(644.493 525)">2</text><text font-family="KaiTi,KaiTi_MSFontService,sans-serif" font-weight="400" font-size="16" transform="translate(493.513 500)">写寄存器</text><text font-family="KaiTi,KaiTi_MSFontService,sans-serif" font-weight="400" font-size="16" transform="translate(557.513 500)">2</text><text font-family="KaiTi,KaiTi_MSFontService,sans-serif" font-weight="400" font-size="16" transform="translate(492.805 537)">写数据</text><text font-family="KaiTi,KaiTi_MSFontService,sans-serif" font-weight="400" font-size="16" transform="translate(540.805 537)">1</text><text font-family="KaiTi,KaiTi_MSFontService,sans-serif" font-weight="700" font-size="16" transform="translate(420.693 412)">rt</text><path d="M374.5 385C374.5 383.067 375.843 381.5 377.5 381.5 379.157 381.5 380.5 383.067 380.5 385 380.5 386.933 379.157 388.5 377.5 388.5 375.843 388.5 374.5 386.933 374.5 385Z" stroke="#92D050" stroke-width="1.33333" stroke-miterlimit="8" fill="#92D050" fill-rule="evenodd"/><path d="M377.5 386.5 377.5 501.5" stroke="#92D050" stroke-width="3" stroke-linejoin="round" stroke-miterlimit="10" fill="none" fill-rule="evenodd"/><path d="M375.5 500 482 500 482 503 375.5 503ZM480.5 497 489.5 501.5 480.5 506Z" fill="#92D050"/><path d="M671.5 588C671.5 586.067 673.067 584.5 675 584.5 676.933 584.5 678.5 586.067 678.5 588 678.5 589.933 676.933 591.5 675 591.5 673.067 591.5 671.5 589.933 671.5 588Z" stroke="#92D050" stroke-width="1.33333" stroke-miterlimit="8" fill="#92D050" fill-rule="evenodd"/><path d="M456.5 567.5 456.5 594.5" stroke="#92D050" stroke-width="3" stroke-linejoin="round" stroke-miterlimit="10" fill="none" fill-rule="evenodd"/><path d="M0 0 2 219" stroke="#92D050" stroke-width="3" stroke-linejoin="round" stroke-miterlimit="10" fill="none" fill-rule="evenodd" transform="matrix(1.83697e-16 1 1 -1.83697e-16 457.5 593.5)"/><path d="M455.5 567 483 567 483 570 455.5 570ZM481.5 564 490.5 568.5 481.5 573Z" fill="#92D050"/><path d="M0 0 4 477" stroke="#00B050" stroke-width="3" stroke-linejoin="round" stroke-miterlimit="10" fill="none" fill-rule="evenodd" transform="matrix(1.83697e-16 1 1 -1.83697e-16 274.5 96.5001)"/><g clip-path="url(#clip3)" filter="url(#fx0)" transform="translate(140 183)"><g><path d="M4.72217-5.00977 4.72217 0 1.66064 0 1.66064-14.3706 6.60547-14.3706C10.1803-14.3706 11.9678-12.8553 11.9678-9.82471 11.9678-8.3527 11.4281-7.17293 10.3489-6.2854 9.26961-5.39787 7.91976-4.97266 6.29932-5.00977ZM4.72217-11.9956 4.72217-7.35693 6.04883-7.35693C7.84863-7.35693 8.74854-8.13932 8.74854-9.7041 8.74854-11.2318 7.85791-11.9956 6.07666-11.9956ZM24.2454-0.519531C23.2002-0.00618492 21.8364 0.250488 20.1541 0.250488 17.9894 0.250488 16.2716-0.39738 15.0006-1.69312 13.7296-2.98885 13.0941-4.71598 13.0941-6.87451 13.0941-9.14437 13.8038-11.0014 15.2232-12.4456 16.6427-13.8897 18.4749-14.6118 20.7201-14.6118 22.124-14.6118 23.2992-14.4294 24.2454-14.0645L24.2454-11.105C23.2744-11.674 22.1735-11.9585 20.9427-11.9585 19.5387-11.9585 18.4162-11.5101 17.575-10.6133 16.7339-9.71647 16.3133-8.54443 16.3133-7.09717 16.3133-5.68701 16.7122-4.55208 17.5101-3.69238 18.3079-2.83268 19.3872-2.40283 20.7479-2.40283 22.0282-2.40283 23.194-2.71208 24.2454-3.33057Z" fill="#00B050" transform="translate(14.0745 27)"/></g></g><text fill="#00B050" font-family="Microsoft YaHei,Microsoft YaHei_MSFontService,sans-serif" font-weight="700" font-size="19" transform="translate(152.991 209)">PC</text><g clip-path="url(#clip4)" filter="url(#fx1)" transform="translate(170 183)"><g><path d="M10.3535-11.6987 7.91357-11.6987 9.92676-10.8823C9.52474-10.2515 9.0887-9.59587 8.61865-8.91553L10.7617-8.91553 10.7617-6.8374 0.352539-6.8374 0.352539-8.91553 2.56982-8.91553C2.2111-9.47217 1.7998-10.0535 1.33594-10.6597L3.14502-11.6987 0.779297-11.6987 0.779297-13.7769 4.37891-13.7769C4.18099-14.352 3.96452-14.8963 3.72949-15.4097L6.5127-15.8735C6.75391-15.2427 6.97965-14.5438 7.18994-13.7769L10.3535-13.7769ZM5.06543-9.62061 3.79443-8.91553 5.84473-8.91553C6.45703-9.84945 6.96728-10.7772 7.37549-11.6987L3.44189-11.6987C4.16553-10.87 4.70671-10.1772 5.06543-9.62061ZM16.3281-8.06201C17.8991-6.49105 18.6846-4.7902 18.6846-2.95947 18.6846-1.93896 18.4109-1.14266 17.8635-0.570557 17.3162 0.00154622 16.1859 0.275228 14.4727 0.250488 14.3861-0.627767 14.2314-1.51839 14.0088-2.42139 14.485-2.34717 14.8283-2.31006 15.0386-2.31006 15.7993-2.31006 16.1797-2.68734 16.1797-3.44189 16.1797-4.82731 15.4375-6.29313 13.9531-7.83936 14.5964-9.36084 15.2025-10.9937 15.7715-12.7378L13.749-12.7378 13.749 2.51416 11.374 2.51416 11.374-14.8901 18.332-14.8901 18.332-13.1089C17.8991-11.9214 17.2311-10.2391 16.3281-8.06201ZM1.1875 2.0874 1.1875-5.42725 9.92676-5.42725 9.92676 1.97607 7.58887 1.97607 7.58887 1.02979 3.52539 1.02979 3.52539 2.0874ZM7.58887-3.34912 3.52539-3.34912 3.52539-1.04834 7.58887-1.04834ZM37.5182-8.98975C36.9987-8.34652 36.4049-7.55485 35.737-6.61475 35.2793-6.97347 34.8371-7.34456 34.4103-7.72803 34.2433-3.77588 34.1134-1.38851 34.0207-0.565918 33.9279 0.256673 33.6217 0.892171 33.1022 1.34058 32.5827 1.78898 31.856 2.01318 30.922 2.01318 29.6479 2.01318 28.445 1.99463 27.3132 1.95752 27.2018 0.930827 27.0719-0.0030925 26.9235-0.844238 28.5316-0.708171 29.6943-0.640137 30.4118-0.640137 30.8385-0.640137 31.1091-0.830322 31.2236-1.21069 31.338-1.59106 31.4323-3.14502 31.5065-5.87256L26.9235-5.87256C26.8184-4.1346 26.5694-2.80176 26.1767-1.87402 25.7839-0.946289 25.1685-0.108236 24.3305 0.640137 23.4924 1.38851 22.4395 2.03792 21.1716 2.58838 20.4046 1.56169 19.7614 0.776204 19.2419 0.231934 20.3428-0.207194 21.2504-0.694255 21.9648-1.22925 22.6791-1.76424 23.1925-2.33325 23.5048-2.93628 23.8171-3.53931 24.0259-4.51807 24.131-5.87256L21.487-5.87256 21.487-7.34766C21.1777-7.11263 20.8623-6.88688 20.5407-6.67041 19.9717-7.47445 19.4089-8.17334 18.8522-8.76709 21.6478-10.7339 23.7568-13.0718 25.1794-15.7808L27.6657-14.7046C26.373-12.2677 24.7495-10.1772 22.7951-8.43311L33.6496-8.43311C31.7508-10.2638 30.1829-12.3048 28.946-14.5562L31.2467-15.7437C32.8301-13.0099 34.9206-10.7586 37.5182-8.98975Z" fill="#00B050" transform="translate(14.4078 27)"/></g></g><text fill="#00B050" font-family="Microsoft YaHei,Microsoft YaHei_MSFontService,sans-serif" font-weight="700" font-size="19" transform="translate(183.324 209)">部分</text><g clip-path="url(#clip5)" filter="url(#fx2)" transform="translate(322 311)"><g><path d="M0.705078-12.144 2.15234-12.144C1.82454-12.8058 1.38542-13.5109 0.834961-14.2593L2.50488-15.2983C2.88835-14.8407 3.40788-14.1232 4.06348-13.146L2.39355-12.144 4.47168-12.144 4.47168-15.7808 6.82812-15.7808 6.82812-12.144 8.77637-12.144 7.23633-13.146C7.85482-13.9006 8.37435-14.6366 8.79492-15.354L10.5391-14.3149C10.1247-13.6099 9.61133-12.8862 8.99902-12.144L10.0752-12.144 10.0752-10.2515 6.82812-10.2515 6.82812-8.95264 7.45898-9.80615C8.2321-9.39176 8.96501-8.98356 9.65771-8.58154 10.672-10.4618 11.5472-12.8924 12.2832-15.8735L14.8252-15.6323C14.5778-14.6737 14.3149-13.7583 14.0366-12.8862L18.6846-12.8862 18.6846-10.6226 17.9331-10.6226C17.6672-7.34456 16.9714-4.65104 15.8457-2.54199 16.6374-1.62044 17.6084-0.825684 18.7588-0.157715 18.3135 0.349447 17.7754 1.17204 17.1445 2.31006 16.0622 1.58643 15.1252 0.708171 14.3335-0.324707 13.313 0.875163 12.1286 1.84619 10.7803 2.58838 10.2793 1.87712 9.72575 1.20915 9.11963 0.584473L8.46094 1.6792C7.71875 1.25244 6.90853 0.819499 6.03027 0.380371 4.67578 1.28337 3.05534 1.92659 1.16895 2.31006 0.946289 1.62972 0.61849 0.868978 0.185547 0.027832 1.47819-0.108236 2.61621-0.368001 3.59961-0.751465 2.74609-1.12874 1.8431-1.51221 0.890625-1.90186 1.3112-2.51416 1.68848-3.12646 2.02246-3.73877L0.500977-3.73877 0.500977-5.63135 2.94092-5.63135C3.14502-6.11995 3.32129-6.60856 3.46973-7.09717L4.47168-7.00439 4.47168-8.78564C3.55631-7.8208 2.40592-6.92399 1.02051-6.09521 0.760742-6.92399 0.470052-7.66618 0.148438-8.32178 1.37923-8.79801 2.48942-9.44124 3.479-10.2515L0.705078-10.2515ZM13.0439-10.0938C13.2913-8.03418 13.7243-6.31169 14.3428-4.92627 15.0788-6.54671 15.5179-8.44547 15.6602-10.6226L13.248-10.6226C13.1862-10.4432 13.1182-10.2669 13.0439-10.0938ZM6.82812-6.57764 5.89111-6.57764C5.74886-6.27458 5.59115-5.95915 5.41797-5.63135L9.74121-5.63135 9.74121-3.90576C9.25879-2.89762 8.65576-2.00391 7.93213-1.22461L9.77832-0.491699 9.40723 0.111328C10.7741-0.599935 11.9399-1.52148 12.9048-2.65332 12.2987-3.89648 11.8348-5.28809 11.5132-6.82812 11.2967-6.43848 11.0771-6.06429 10.8545-5.70557 10.57-6.20036 10.2391-6.71061 9.86182-7.23633L9.31445-6.41064C8.54753-6.93018 7.71875-7.45589 6.82812-7.98779ZM3.85938-2.77393 5.78906-2.05029C6.3457-2.53271 6.80338-3.09554 7.16211-3.73877L4.40674-3.73877ZM37.3512-5.68701 33.1208-5.68701 33.1208-4.12842 36.238-4.12842 36.238 2.53271 34.0485 2.53271 34.0485 1.60498 29.9108 1.60498 29.9108 2.53271 27.7214 2.53271 27.7214-4.12842 30.7829-4.12842 30.7829-5.68701 27.5358-5.68701C27.3132-2.29769 26.5215 0.392741 25.1608 2.38428 24.6413 1.70394 24.0846 1.07308 23.4909 0.491699 24.7279-1.67301 25.3464-4.61084 25.3464-8.32178L25.3464-15.0942 36.5719-15.0942 36.5719-9.28662 33.1208-9.28662 33.1208-7.63525 37.3512-7.63525ZM19.1676-12.311 20.9303-12.311 20.9303-15.5952 23.1755-15.5952 23.1755-12.311 24.7712-12.311 24.7712-9.93604 23.1755-9.93604 23.1755-7.33838C23.7074-7.44971 24.2702-7.57959 24.8639-7.72803 24.8021-6.73844 24.7773-5.93441 24.7897-5.31592 24.2454-5.17985 23.7074-5.04378 23.1755-4.90771L23.1755 0.17627C23.1755 1.54932 22.6126 2.25439 21.487 2.2915 20.8314 2.35335 20.2005 2.37191 19.5944 2.34717 19.4707 1.61735 19.2913 0.813314 19.0563-0.0649414 19.4645-0.0525716 19.8789-0.0402018 20.2995-0.027832 20.7201-0.0154622 20.9303-0.312337 20.9303-0.918457L20.9303-4.33252C20.3366-4.17171 19.7428-4.01709 19.1491-3.86865L18.945-6.4292C19.5016-6.54053 20.1634-6.67659 20.9303-6.8374L20.9303-9.93604 19.1676-9.93604ZM34.2897-11.2349 34.2897-13.146 27.61-13.146 27.61-11.2349ZM34.0485-2.18018 29.9108-2.18018 29.9108-0.343262 34.0485-0.343262ZM30.7829-7.63525 30.7829-9.28662 27.61-9.28662 27.61-7.63525ZM47.6869-11.6987 45.2469-11.6987 47.2601-10.8823C46.8581-10.2515 46.422-9.59587 45.952-8.91553L48.0951-8.91553 48.0951-6.8374 37.6859-6.8374 37.6859-8.91553 39.9032-8.91553C39.5444-9.47217 39.1331-10.0535 38.6693-10.6597L40.4784-11.6987 38.1126-11.6987 38.1126-13.7769 41.7122-13.7769C41.5143-14.352 41.2979-14.8963 41.0628-15.4097L43.846-15.8735C44.0872-15.2427 44.313-14.5438 44.5233-13.7769L47.6869-13.7769ZM42.3988-9.62061 41.1278-8.91553 43.1781-8.91553C43.7904-9.84945 44.3006-10.7772 44.7088-11.6987L40.7752-11.6987C41.4989-10.87 42.04-10.1772 42.3988-9.62061ZM53.6615-8.06201C55.2324-6.49105 56.0179-4.7902 56.0179-2.95947 56.0179-1.93896 55.7442-1.14266 55.1969-0.570557 54.6495 0.00154622 53.5192 0.275228 51.806 0.250488 51.7194-0.627767 51.5648-1.51839 51.3421-2.42139 51.8184-2.34717 52.1616-2.31006 52.3719-2.31006 53.1327-2.31006 53.513-2.68734 53.513-3.44189 53.513-4.82731 52.7708-6.29313 51.2865-7.83936 51.9297-9.36084 52.5358-10.9937 53.1048-12.7378L51.0824-12.7378 51.0824 2.51416 48.7074 2.51416 48.7074-14.8901 55.6654-14.8901 55.6654-13.1089C55.2324-11.9214 54.5645-10.2391 53.6615-8.06201ZM38.5208 2.0874 38.5208-5.42725 47.2601-5.42725 47.2601 1.97607 44.9222 1.97607 44.9222 1.02979 40.8587 1.02979 40.8587 2.0874ZM44.9222-3.34912 40.8587-3.34912 40.8587-1.04834 44.9222-1.04834ZM74.8516-8.98975C74.332-8.34652 73.7383-7.55485 73.0703-6.61475 72.6126-6.97347 72.1704-7.34456 71.7437-7.72803 71.5767-3.77588 71.4468-1.38851 71.354-0.565918 71.2612 0.256673 70.9551 0.892171 70.4355 1.34058 69.916 1.78898 69.1893 2.01318 68.2554 2.01318 66.9813 2.01318 65.7783 1.99463 64.6465 1.95752 64.5352 0.930827 64.4053-0.0030925 64.2568-0.844238 65.8649-0.708171 67.0277-0.640137 67.7451-0.640137 68.1719-0.640137 68.4425-0.830322 68.5569-1.21069 68.6713-1.59106 68.7656-3.14502 68.8398-5.87256L64.2568-5.87256C64.1517-4.1346 63.9028-2.80176 63.51-1.87402 63.1173-0.946289 62.5019-0.108236 61.6638 0.640137 60.8258 1.38851 59.7728 2.03792 58.5049 2.58838 57.738 1.56169 57.0947 0.776204 56.5752 0.231934 57.6761-0.207194 58.5837-0.694255 59.2981-1.22925 60.0125-1.76424 60.5258-2.33325 60.8381-2.93628 61.1505-3.53931 61.3592-4.51807 61.4644-5.87256L58.8203-5.87256 58.8203-7.34766C58.5111-7.11263 58.1956-6.88688 57.874-6.67041 57.305-7.47445 56.7422-8.17334 56.1856-8.76709 58.9811-10.7339 61.0902-13.0718 62.5127-15.7808L64.999-14.7046C63.7064-12.2677 62.0828-10.1772 60.1284-8.43311L70.9829-8.43311C69.0841-10.2638 67.5163-12.3048 66.2793-14.5562L68.5801-15.7437C70.1634-13.0099 72.2539-10.7586 74.8516-8.98975Z" fill="#92D050" transform="translate(14.4829 26)"/></g></g><text fill="#92D050" font-family="Microsoft YaHei,Microsoft YaHei_MSFontService,sans-serif" font-weight="700" font-size="19" transform="translate(335.399 336)">数据部分</text><path d="M334.5 477.5 334.5 631.5" stroke="#000000" stroke-width="3" stroke-linejoin="round" stroke-miterlimit="10" fill="none" fill-rule="evenodd"/><path d="M462 345 566 345" stroke="#1EB6EF" stroke-width="2" stroke-linejoin="round" stroke-miterlimit="10" fill="none" fill-rule="evenodd"/><path d="M567 345 567 361.333 565 361.333 565 345ZM570 360 566 368 562 360Z" fill="#1EB6EF"/><text fill="#00B0F0" font-family="Cambria,Cambria_MSFontService,sans-serif" font-weight="400" font-size="13" transform="translate(492.149 357)">RegWrite 2</text><path d="M898.5 494.5 914.5 494.5" stroke="#92D050" stroke-width="3" stroke-linejoin="round" stroke-miterlimit="10" fill="none" fill-rule="evenodd"/><text fill="#92D050" font-family="Cambria,Cambria_MSFontService,sans-serif" font-weight="700" font-size="16" transform="translate(758.269 511)">0</text><text fill="#92D050" font-family="KaiTi,KaiTi_MSFontService,sans-serif" font-weight="400" font-size="16" transform="translate(874.454 654)">原封不动写回</text></g></svg>